<svg width="26" height="25" viewBox="0 0 26 25" fill="none" xmlns="http://www.w3.org/2000/svg">
<path fill-rule="evenodd" clip-rule="evenodd" d="M25.2661 12.4911C25.2661 12.2805 25.2663 12.0702 25.2665 11.8601V11.86C25.2682 10.3486 25.2699 8.84651 25.1848 7.33482C25.0879 5.33482 24.6317 3.55981 23.1692 2.09732C21.7036 0.63169 19.9317 0.178565 17.9317 0.0816912C16.4172 -0.00336133 14.9147 -0.00169812 13.4053 -2.34684e-05C13.1955 0.000209228 12.9855 0.000441925 12.7754 0.000441925C12.5649 0.000441925 12.3546 0.000209228 12.1444 -2.34684e-05C10.633 -0.00169812 9.13089 -0.00335751 7.61918 0.0816912C5.61918 0.178565 3.84418 0.634815 2.38168 2.09732C0.916054 3.56294 0.462929 5.33482 0.366054 7.33482C0.281001 8.84931 0.282666 10.3518 0.284339 11.8612C0.284571 12.071 0.284804 12.2809 0.284804 12.4911C0.284804 12.7012 0.284571 12.9111 0.284339 13.121C0.282666 14.631 0.280999 16.1355 0.366054 17.6473C0.462929 19.6473 0.919179 21.4223 2.38168 22.8848C3.8473 24.3504 5.61918 24.8036 7.61918 24.9004C9.13354 24.9855 10.6358 24.9838 12.1452 24.9822H12.1456L12.1648 24.9821C12.3682 24.9819 12.5717 24.9817 12.7754 24.9817C12.9796 24.9817 13.1835 24.9819 13.3873 24.9821L13.4064 24.9822H13.4066C14.918 24.9838 16.42 24.9855 17.9317 24.9004C19.9317 24.8036 21.7067 24.3473 23.1692 22.8848C24.6348 21.4192 25.0879 19.6473 25.1848 17.6473C25.2712 16.1605 25.269 14.6829 25.2668 13.1966C25.2664 12.9617 25.2661 12.7265 25.2661 12.4911ZM17.9473 5.82256C17.9473 4.99443 18.6161 4.32568 19.4442 4.32568C19.8414 4.32519 20.2224 4.48273 20.5032 4.76356C20.784 5.04438 20.9416 5.42541 20.9411 5.82256C20.9411 6.65381 20.2723 7.31943 19.4442 7.31943C18.6161 7.31943 17.9473 6.65068 17.9473 5.82256ZM12.7723 6.08154C9.22542 6.08154 6.36292 8.94404 6.36292 12.4909C6.36292 16.0378 9.22542 18.9003 12.7723 18.9003C16.3192 18.9003 19.1817 16.0378 19.1817 12.4909C19.1817 8.94404 16.3192 6.08154 12.7723 6.08154ZM12.7723 16.6569C10.4786 16.6569 8.60669 14.7851 8.60669 12.4913C8.60669 10.1976 10.4786 8.32568 12.7723 8.32568C15.0661 8.32568 16.9379 10.1976 16.9379 12.4913C16.9379 14.7851 15.0661 16.6569 12.7723 16.6569ZM21.5723 21.2913C22.0129 20.8538 22.2879 20.4288 22.516 19.86C23.0777 18.4464 23.0477 15.3616 23.0283 13.3668C23.0252 13.0421 23.0223 12.7463 23.0223 12.4913C23.0223 12.2355 23.0252 11.9386 23.0284 11.6127C23.0478 9.61715 23.0779 6.53238 22.5192 5.1194C22.291 4.55065 22.016 4.12878 21.5754 3.68816C21.1379 3.24753 20.7129 2.97253 20.1442 2.7444C18.7312 2.18566 15.6464 2.21574 13.6509 2.23521C13.3249 2.23838 13.0281 2.24128 12.7723 2.24128C12.5165 2.24128 12.2196 2.23838 11.8937 2.23521C9.89816 2.21574 6.81338 2.18566 5.40041 2.7444C4.83166 2.97253 4.40979 3.25066 3.96916 3.68816C3.52854 4.12566 3.25354 4.55065 3.02541 5.1194C2.46667 6.53238 2.49675 9.61715 2.51621 11.6127C2.51939 11.9386 2.52229 12.2355 2.52229 12.4913C2.52229 12.7471 2.51939 13.0439 2.51621 13.3698C2.49675 15.3648 2.46668 18.4475 3.02541 19.8632C3.25354 20.4319 3.52854 20.8538 3.96916 21.2944C4.40666 21.735 4.83166 22.01 5.40041 22.2382C6.81338 22.7969 9.89816 22.7668 11.8937 22.7474C12.2196 22.7442 12.5165 22.7413 12.7723 22.7413C13.0273 22.7413 13.3231 22.7442 13.6478 22.7473C15.6426 22.7667 18.7274 22.7967 20.141 22.235C20.7098 22.0069 21.1317 21.7319 21.5723 21.2913Z" fill="#1B1C1E"/>
</svg>
